# xmcd
# 
# Track frame offsets:
#     151
#     31926
#     55936
#     75609
#     88055
#     94670
#     128692
#     134186
#     152177
#     177724
# 
# Disc length: 2610
# 
# Revision: 0
# Processed by: cddbd v1.5.2PL0 Copyright (c) Steve Scherf et al.
# Submitted via: fre:ac v1.0.31
# 
DISCID=860a300a
DTITLE=Rainbow - CATCH THE RAINBOW [CD2]
DYEAR=1977
DGENRE=Hard Rock
TTITLE0=Long Live Rock'N'Roll
TTITLE1=Lazy - Man On The Silver Mountain
TTITLE2=Blues
TTITLE3=Starstruck - Man On The Silver Mountain
TTITLE4=Adlibs
TTITLE5=Keyboard Solo - Still I'm Sad
TTITLE6=Beethoven's Ninth
TTITLE7=Keyboard Solo
TTITLE8=Drum Solo - 1812 Overture
TTITLE9=Still I'm Sad (rep.)
EXTD=
EXTT0=
EXTT1=
EXTT2=
EXTT3=
EXTT4=
EXTT5=
EXTT6=
EXTT7=
EXTT8=
EXTT9=
PLAYORDER=
